<svg id="livetype" xmlns="http://www.w3.org/2000/svg" width="104.68" height="40"
  viewBox="0 0 104.68 40">
  <defs>
    <style>
      .cls-1 {
      fill: #fff;
      }

      .cls-2 {
      fill: #a6a6a6;
      }

      .cls-3 {
      isolation: isolate;
      }
    </style>
  </defs>
  <g>
    <g>
      <rect class="cls-2" width="104.68" height="40" rx="6.8" ry="6.8" />
      <rect x=".91" y=".81" width="102.9" height="38.25" rx="6.49" ry="6.49" />
      <g class="cls-3">
        <g class="cls-3">
          <path class="cls-1"
            d="m35.89,14.56v-6.4h1.81c.56,0,1.05.12,1.48.37s.76.6.99,1.05c.23.45.35.97.35,1.56v.41c0,.6-.12,1.13-.35,1.59-.23.46-.57.8-1,1.05-.43.24-.94.37-1.51.37h-1.77Zm.84-5.71v5.02h.89c.65,0,1.16-.2,1.52-.61s.54-.98.54-1.73v-.37c0-.73-.17-1.29-.51-1.7-.34-.4-.83-.61-1.45-.61h-.98Z" />
          <path class="cls-1"
            d="m41.45,12.14c0-.46.09-.88.27-1.26.18-.37.44-.66.76-.86.33-.2.7-.3,1.12-.3.65,0,1.17.22,1.57.67.4.45.6,1.04.6,1.79v.06c0,.46-.09.88-.27,1.25-.18.37-.43.65-.76.86-.33.21-.71.31-1.14.31-.64,0-1.17-.22-1.57-.67-.4-.45-.6-1.04-.6-1.78v-.06Zm.82.1c0,.53.12.95.37,1.27s.57.48.98.48.74-.16.98-.49c.24-.32.36-.78.36-1.36,0-.52-.12-.94-.37-1.27-.25-.32-.58-.49-.99-.49s-.73.16-.97.48-.37.78-.37,1.37Z" />
          <path class="cls-1"
            d="m51.01,13.44l.91-3.63h.81l-1.38,4.75h-.66l-1.16-3.6-1.12,3.6h-.66l-1.38-4.75h.81l.94,3.56,1.11-3.56h.65l1.13,3.63Z" />
          <path class="cls-1"
            d="m54.33,9.81l.03.6c.36-.46.84-.69,1.42-.69,1,0,1.51.57,1.52,1.7v3.14h-.81v-3.15c0-.34-.08-.6-.24-.76-.15-.16-.39-.25-.72-.25-.26,0-.5.07-.69.21s-.35.32-.47.55v3.39h-.81v-4.75h.77Z" />
          <path class="cls-1" d="m59.41,14.56h-.81v-6.75h.81v6.75Z" />
          <path class="cls-1"
            d="m60.5,12.14c0-.46.09-.88.27-1.26.18-.37.44-.66.76-.86.33-.2.7-.3,1.12-.3.65,0,1.17.22,1.57.67.4.45.6,1.04.6,1.79v.06c0,.46-.09.88-.27,1.25-.18.37-.43.65-.76.86-.33.21-.71.31-1.14.31-.64,0-1.17-.22-1.57-.67-.4-.45-.6-1.04-.6-1.78v-.06Zm.82.1c0,.53.12.95.37,1.27.25.32.57.48.98.48s.74-.16.98-.49c.24-.32.37-.78.37-1.36,0-.52-.12-.94-.37-1.27-.25-.32-.58-.49-.99-.49s-.72.16-.97.48-.37.78-.37,1.37Z" />
          <path class="cls-1"
            d="m68.78,14.56c-.05-.09-.08-.26-.11-.5-.38.39-.83.59-1.35.59-.47,0-.85-.13-1.15-.4-.3-.27-.45-.6-.45-1.01,0-.5.19-.88.56-1.15.38-.27.91-.41,1.59-.41h.79v-.37c0-.28-.08-.51-.25-.68-.17-.17-.42-.25-.75-.25-.29,0-.53.07-.73.22-.2.15-.29.32-.29.53h-.82c0-.24.08-.47.25-.69.17-.22.4-.4.69-.53.29-.13.61-.19.95-.19.55,0,.98.14,1.29.41.31.27.47.65.48,1.13v2.19c0,.44.06.78.17,1.04v.07h-.85Zm-1.35-.62c.25,0,.5-.07.72-.2s.39-.3.5-.51v-.97h-.64c-1,0-1.49.29-1.49.87,0,.25.08.45.25.6s.39.22.66.22Z" />
          <path class="cls-1"
            d="m70.54,12.14c0-.73.17-1.32.52-1.76.35-.44.8-.67,1.36-.67s1,.19,1.32.57v-2.48h.81v6.75h-.75l-.04-.51c-.33.4-.78.6-1.36.6s-1-.23-1.35-.68c-.35-.45-.52-1.04-.52-1.77v-.06Zm.81.09c0,.54.11.96.33,1.27s.53.46.92.46c.52,0,.89-.23,1.13-.7v-2.18c-.24-.45-.62-.67-1.12-.67-.4,0-.71.15-.93.46s-.33.76-.33,1.37Z" />
          <path class="cls-1"
            d="m78.45,14.56v-4.13h-.75v-.63h.75v-.49c0-.51.14-.9.41-1.18s.66-.42,1.16-.42c.19,0,.37.02.56.07l-.04.65c-.14-.03-.28-.04-.44-.04-.26,0-.47.08-.61.23s-.22.38-.22.66v.5h1.02v.63h-1.02v4.13h-.81Z" />
          <path class="cls-1"
            d="m80.95,12.14c0-.46.09-.88.28-1.26.18-.37.44-.66.76-.86.33-.2.7-.3,1.12-.3.65,0,1.17.22,1.57.67.4.45.6,1.04.6,1.79v.06c0,.46-.09.88-.27,1.25-.18.37-.43.65-.76.86-.33.21-.71.31-1.14.31-.64,0-1.17-.22-1.57-.67-.4-.45-.6-1.04-.6-1.78v-.06Zm.82.1c0,.53.12.95.37,1.27.24.32.57.48.98.48s.74-.16.98-.49c.24-.32.36-.78.36-1.36,0-.52-.12-.94-.37-1.27-.25-.32-.58-.49-.99-.49s-.73.16-.97.48-.37.78-.37,1.37Z" />
          <path class="cls-1"
            d="m88.6,10.53c-.12-.02-.26-.03-.4-.03-.53,0-.9.23-1.09.68v3.38h-.81v-4.75h.79v.55c.28-.42.66-.64,1.15-.64.16,0,.28.02.36.06v.76Z" />
        </g>
      </g>
      <g class="cls-3">
        <g class="cls-3">
          <path class="cls-1"
            d="m42.31,26.91h-5.36l-1.2,3.35h-1.74l4.89-12.8h1.48l4.9,12.8h-1.73l-1.22-3.35Zm-4.85-1.38h4.35l-2.18-5.99-2.17,5.99Z" />
          <path class="cls-1"
            d="m48.27,20.75l.05,1.2c.73-.91,1.68-1.37,2.85-1.37,2.01,0,3.02,1.13,3.04,3.4v6.28h-1.63v-6.29c0-.69-.16-1.19-.47-1.52s-.79-.49-1.44-.49c-.53,0-.99.14-1.39.42s-.71.65-.93,1.11v6.78h-1.63v-9.51h1.54Z" />
          <path class="cls-1"
            d="m56.27,25.43c0-1.46.35-2.63,1.04-3.52.69-.89,1.6-1.33,2.72-1.33s2,.38,2.65,1.14v-4.96h1.63v13.5h-1.49l-.08-1.02c-.65.8-1.56,1.2-2.72,1.2s-2-.45-2.69-1.35-1.04-2.08-1.04-3.53v-.12Zm1.63.18c0,1.08.22,1.92.67,2.53s1.06.91,1.85.91c1.03,0,1.78-.46,2.26-1.39v-4.37c-.49-.9-1.23-1.34-2.24-1.34-.8,0-1.42.31-1.86.92s-.67,1.53-.67,2.73Z" />
        </g>
        <g class="cls-3">
          <path class="cls-1"
            d="m71.42,22.21c-.25-.04-.51-.06-.8-.06-1.07,0-1.79.45-2.17,1.36v6.75h-1.63v-9.51h1.58l.03,1.1c.53-.85,1.29-1.27,2.27-1.27.32,0,.56.04.72.12v1.51Z" />
        </g>
        <g class="cls-3">
          <path class="cls-1"
            d="m72.3,25.42c0-.93.18-1.77.55-2.51.37-.74.88-1.32,1.53-1.72.65-.4,1.4-.61,2.24-.61,1.29,0,2.34.45,3.14,1.34.8.9,1.2,2.09,1.2,3.58v.11c0,.93-.18,1.76-.53,2.49-.36.74-.86,1.31-1.52,1.72-.66.41-1.42.62-2.27.62-1.29,0-2.33-.45-3.13-1.34-.8-.9-1.2-2.08-1.2-3.56v-.11Zm1.63.19c0,1.05.25,1.9.73,2.54.49.64,1.14.96,1.96.96s1.48-.32,1.97-.97c.49-.65.73-1.55.73-2.72,0-1.04-.25-1.89-.74-2.54-.49-.65-1.15-.97-1.97-.97s-1.45.32-1.94.96-.74,1.55-.74,2.74Z" />
          <path class="cls-1"
            d="m83,18.23c0-.26.08-.49.24-.67.16-.18.4-.27.72-.27s.56.09.72.27.25.4.25.67-.08.48-.25.66-.4.26-.72.26-.55-.09-.72-.26c-.16-.18-.24-.4-.24-.66Zm1.76,12.03h-1.63v-9.51h1.63v9.51Z" />
          <path class="cls-1"
            d="m86.97,25.43c0-1.46.35-2.63,1.04-3.52.69-.89,1.6-1.33,2.72-1.33s2,.38,2.65,1.14v-4.96h1.63v13.5h-1.49l-.08-1.02c-.65.8-1.56,1.2-2.72,1.2s-2-.45-2.69-1.35c-.69-.9-1.04-2.08-1.04-3.53v-.12Zm1.63.18c0,1.08.22,1.92.67,2.53s1.06.91,1.85.91c1.03,0,1.78-.46,2.26-1.39v-4.37c-.49-.9-1.23-1.34-2.24-1.34-.8,0-1.42.31-1.86.92s-.67,1.53-.67,2.73Z" />
        </g>
      </g>
      <path class="cls-1"
        d="m11.02,15.9c-.37,0-.69.13-.94.39s-.39.57-.39.93v5.56c0,.37.13.69.39.94.26.26.57.39.94.39s.68-.13.94-.39c.25-.26.38-.57.38-.94v-5.56c0-.36-.13-.67-.39-.93s-.57-.39-.93-.39Zm10.7-4.99l.92-1.69c.06-.11.04-.2-.06-.26-.11-.05-.2-.03-.26.08l-.93,1.71c-.82-.36-1.69-.54-2.6-.54s-1.78.18-2.6.54l-.93-1.71c-.06-.1-.15-.13-.26-.08-.1.06-.12.15-.06.26l.92,1.69c-.93.47-1.67,1.14-2.22,1.98-.55.85-.83,1.78-.83,2.79h11.96c0-1.01-.28-1.94-.83-2.79s-1.29-1.51-2.21-1.98h0Zm-5.31,2.46c-.1.1-.22.15-.36.15s-.25-.05-.35-.15c-.09-.1-.14-.22-.14-.36s.05-.26.14-.36c.09-.1.21-.15.35-.15s.26.05.36.15c.1.1.15.22.15.36s-.05.26-.15.36Zm5.45,0c-.09.1-.21.15-.35.15s-.26-.05-.36-.15c-.1-.1-.15-.22-.15-.36s.05-.26.15-.36c.1-.1.22-.15.36-.15s.25.05.35.15c.09.1.14.22.14.36s-.05.26-.14.36Zm-9.01,11.38c0,.4.14.73.41,1.01.28.28.61.41,1.01.41h.96v2.93c.01.37.14.69.4.94s.57.39.93.39.69-.13.94-.39.39-.57.39-.94v-2.93h1.78v2.93c0,.37.13.69.39.94s.57.39.94.39.69-.13.94-.39.39-.57.39-.94v-2.93h.97c.39,0,.72-.14,1-.41.28-.28.41-.61.41-1.01v-8.61h-11.87v8.61h.01Zm13.7-8.85c-.36,0-.67.13-.93.38s-.39.57-.39.94v5.56c0,.37.13.69.39.94s.57.39.93.39.69-.13.94-.39.39-.57.39-.94v-5.56c0-.37-.13-.68-.39-.94-.26-.25-.57-.38-.94-.38h0Z" />
    </g>
  </g>
</svg>