<svg id="livetype" xmlns="http://www.w3.org/2000/svg" width="104.68" height="40"
  viewBox="0 0 104.68 40">
  <defs>
    <style>
      .cls-1, .cls-2, .cls-3 {
      fill: #fff;
      }

      .cls-4 {
      fill: #a6a6a6;
      }

      .cls-2 {
      font-size: 9px;
      }

      .cls-2, .cls-3 {
      font-family: Roboto-Regular, Roboto;
      }

      .cls-5 {
      letter-spacing: 0em;
      }

      .cls-3 {
      font-size: 18px;
      }
    </style>
  </defs>
  <g>
    <rect class="cls-4" width="104.68" height="40" rx="6.8" ry="6.8" />
    <rect x=".91" y=".81" width="102.9" height="38.25" rx="6.49" ry="6.49" />
    <text class="cls-2" transform="translate(35.15 14.56)">
      <tspan x="0" y="0">Download for</tspan>
    </text>
    <text class="cls-3" transform="translate(33.76 30.26)">
      <tspan x="0" y="0">And</tspan>
      <tspan class="cls-5" x="31.83" y="0">r</tspan>
      <tspan x="37.74" y="0">oid</tspan>
    </text>
    <path class="cls-1"
      d="m11.02,15.9c-.37,0-.69.13-.94.39s-.39.57-.39.93v5.56c0,.37.13.69.39.94.26.26.57.39.94.39s.68-.13.94-.39c.25-.26.38-.57.38-.94v-5.56c0-.36-.13-.67-.39-.93s-.57-.39-.93-.39Zm10.7-4.99l.92-1.69c.06-.11.04-.2-.06-.26-.11-.05-.2-.03-.26.08l-.93,1.71c-.82-.36-1.69-.54-2.6-.54s-1.78.18-2.6.54l-.93-1.71c-.06-.1-.15-.13-.26-.08-.1.06-.12.15-.06.26l.92,1.69c-.93.47-1.67,1.14-2.22,1.98-.55.85-.83,1.78-.83,2.79h11.96c0-1.01-.28-1.94-.83-2.79-.55-.85-1.29-1.51-2.21-1.98h0Zm-5.31,2.46c-.1.1-.22.15-.36.15s-.25-.05-.35-.15c-.09-.1-.14-.22-.14-.36s.05-.26.14-.36c.09-.1.21-.15.35-.15s.26.05.36.15c.1.1.15.22.15.36,0,.14-.05.26-.15.36Zm5.45,0c-.09.1-.21.15-.35.15s-.26-.05-.36-.15c-.1-.1-.15-.22-.15-.36s.05-.26.15-.36c.1-.1.22-.15.36-.15s.25.05.35.15c.09.1.14.22.14.36s-.05.26-.14.36Zm-9.01,11.38c0,.4.14.73.41,1.01.28.28.61.41,1.01.41h.96v2.93c.01.37.14.69.4.94s.57.39.93.39.69-.13.94-.39.39-.57.39-.94v-2.93h1.78v2.93c0,.37.13.69.39.94s.57.39.94.39.69-.13.94-.39.39-.57.39-.94v-2.93h.97c.39,0,.72-.14,1-.41.28-.28.41-.61.41-1.01v-8.61h-11.87v8.61Zm13.7-8.85c-.36,0-.67.13-.93.38-.26.25-.39.57-.39.94v5.56c0,.37.13.69.39.94s.57.39.93.39.69-.13.94-.39.39-.57.39-.94v-5.56c0-.37-.13-.68-.39-.94-.26-.25-.57-.38-.94-.38h0Z" />
  </g>
</svg>